<?xml version="1.0" encoding="utf-8"?>
<!-- Generator: Adobe Illustrator 23.0.2, SVG Export Plug-In . SVG Version: 6.00 Build 0)  -->
<svg version="1.1" id="Layer_1" xmlns="http://www.w3.org/2000/svg" xmlns:xlink="http://www.w3.org/1999/xlink" x="0px" y="0px"
	 viewBox="0 0 167.56 49.02" style="enable-background:new 0 0 167.56 49.02;" xml:space="preserve">
<style type="text/css">
	.st0{fill:#FFFFFE;}
	.st1{fill:#E69924;}
	.st2{fill:#F2FAFB;}
	.st3{font-family:'Raleway-Regular';}
	.st4{font-size:7.0079px;}
</style>
<g>
	<path class="st0" d="M23.45,42.82c1.39,0.14,2.56,0.12,2.61-0.05c0.05-0.17-1.66-0.8-3.05-0.95c-1.39-0.14-1.94,0.25-1.99,0.42
		C20.97,42.42,22.05,42.68,23.45,42.82z"/>
	<path class="st0" d="M38.94,38.33c-0.29-0.42-0.72-0.83,0.02-1.12c-0.18,0-0.37,0.02-0.54,0.11c-0.18,0.09-0.29,0.25-0.31,0.4
		c-0.04,0.3,0.06,0.57,0.15,0.81c0.09,0.24,0.21,0.47,0.27,0.68c0.03,0.1,0.05,0.2,0.04,0.28c-0.01,0.08-0.02,0.12-0.08,0.18
		c-0.09,0.13-0.3,0.25-0.55,0.34c-0.25,0.09-0.55,0.16-0.85,0.2c-0.32,0.05-0.64,0.08-0.98,0.08c-0.09-0.15-0.17-0.31-0.27-0.45
		c-0.22-0.31-0.47-0.59-0.74-0.85c-0.54-0.53-1.17-0.98-1.82-1.39c-0.32-0.21-0.66-0.4-1-0.59c-0.34-0.18-0.69-0.37-1.04-0.54
		c-0.35-0.17-0.7-0.35-1.06-0.5c-0.36-0.16-0.73-0.32-1.04-0.47l-0.49-0.23L28.16,35c-0.32-0.16-0.61-0.35-0.91-0.53
		c-2.36-1.49-4.03-3.52-4.79-5.72c-0.77-2.21-0.63-4.57,0.16-6.8c0.17-0.57,0.44-1.11,0.69-1.67c0.29-0.54,0.56-1.09,0.91-1.62
		c0.64-1.07,1.45-2.09,2.29-3.1c1.72-2,3.76-3.86,5.97-5.61c0.55-0.44,1.1-0.88,1.69-1.29c0.58-0.42,1.15-0.85,1.75-1.25l0.89-0.61
		c0.3-0.21,0.59-0.41,0.91-0.61c0.63-0.41,1.23-0.81,1.84-1.18c-0.65,0.4-1.32,0.76-1.95,1.12c-0.32,0.17-0.63,0.37-0.94,0.56
		l-0.94,0.58c-0.64,0.38-1.23,0.79-1.84,1.2c-0.62,0.4-1.2,0.82-1.79,1.24c-2.34,1.69-4.5,3.52-6.37,5.51
		c-0.91,1.01-1.78,2.04-2.49,3.13c-0.39,0.54-0.69,1.1-1.01,1.66c-0.28,0.57-0.58,1.14-0.79,1.73c-0.94,2.33-1.16,4.86-0.4,7.27
		c0.75,2.41,2.52,4.69,5.11,6.35c0.33,0.21,0.64,0.42,1,0.6l0.52,0.29l0.54,0.26c0.37,0.18,0.7,0.33,1.04,0.49
		c0.34,0.15,0.66,0.32,1,0.49c0.33,0.17,0.64,0.34,0.96,0.51c0.3,0.18,0.62,0.36,0.9,0.55c0.58,0.37,1.12,0.78,1.55,1.21
		c0.43,0.43,0.77,0.89,0.88,1.34c0.07,0.22,0.05,0.44,0.02,0.65c-0.06,0.21-0.17,0.4-0.33,0.59c-0.34,0.37-0.87,0.71-1.5,0.97
		c-0.63,0.26-1.34,0.47-2.08,0.62c-0.04,0.01-0.07,0.01-0.11,0.02c-0.27-0.15-0.62-0.22-0.92-0.3c0.18,0.14,0.38,0.25,0.54,0.38
		c-1.34,0.25-2.75,0.36-4.16,0.37c-1.58,0.02-3.18-0.09-4.74-0.3c-3.12-0.42-6.15-1.27-8.65-2.63c-0.63-0.34-1.22-0.7-1.76-1.11
		c-0.28-0.19-0.53-0.41-0.79-0.62c-0.24-0.22-0.49-0.43-0.71-0.66c-0.9-0.91-1.56-1.93-2.02-3c-0.89-2.18-1.15-4.51-0.65-6.77
		c0.46-2.27,1.6-4.46,3.12-6.5c1.55-2.04,3.5-3.92,5.7-5.65c1.09-0.88,2.26-1.69,3.45-2.5c1.22-0.79,2.46-1.56,3.76-2.28
		C27.88,9.46,33.61,7.06,39.56,5c-6.12,1.78-12.02,4.04-17.4,6.85c-1.35,0.7-2.64,1.45-3.92,2.23c-1.25,0.79-2.49,1.6-3.64,2.47
		c-2.33,1.72-4.39,3.65-6.09,5.74c-0.84,1.05-1.56,2.16-2.17,3.29c-0.61,1.14-1.02,2.33-1.31,3.54c-0.58,2.42-0.35,4.94,0.57,7.32
		c0.48,1.2,1.24,2.36,2.25,3.39c0.24,0.26,0.52,0.5,0.79,0.75c0.29,0.24,0.57,0.48,0.88,0.7c0.6,0.45,1.26,0.87,1.96,1.24
		c2.78,1.51,6.06,2.44,9.42,2.9c1.69,0.22,3.4,0.33,5.12,0.3c1.07-0.02,2.14-0.08,3.2-0.21c-0.24,0.05-0.51,0.09-0.9,0.18
		c-0.12,0.04-0.24,0.09-0.36,0.14c-0.11,0.06-0.22,0.12-0.32,0.19c-0.09,0.08-0.18,0.16-0.25,0.25c-0.06,0.09-0.13,0.18-0.17,0.28
		c-0.16,0.39-0.06,0.79,0.18,1.11c0.23,0.32,0.6,0.57,1.01,0.73c0.42,0.15,0.87,0.22,1.31,0.21c-0.4-0.14-0.76-0.29-1.04-0.49
		c-0.29-0.19-0.49-0.43-0.6-0.67c-0.11-0.24-0.12-0.49-0.01-0.69c0.11-0.2,0.32-0.35,0.62-0.43c0.25-0.07,0.8-0.14,1.23-0.31
		c0.43-0.16,0.85-0.42,1.05-0.79c0.06-0.01,0.13-0.02,0.19-0.04c0.84-0.18,1.68-0.42,2.48-0.76c0.79-0.33,1.56-0.79,2.12-1.41
		c0.27-0.32,0.47-0.68,0.57-1.05c0.08-0.38,0.08-0.76-0.03-1.12c-0.01-0.07-0.04-0.13-0.06-0.19c0.29,0.05,0.6,0.09,0.9,0.08
		c0.38,0,0.76-0.04,1.14-0.15c0.37-0.1,0.76-0.28,1.01-0.59c0.06-0.07,0.11-0.15,0.15-0.25c0.03-0.09,0.05-0.18,0.04-0.27
		c-0.01-0.17-0.05-0.32-0.11-0.45C39.26,38.77,39.09,38.54,38.94,38.33z"/>
</g>
<g>
	<path class="st1" d="M32.25,21.7c-0.24-0.75-0.63-1.48-1.18-2.19c-0.47-0.62-0.85-1.12-1.13-1.5c-0.28-0.38-0.5-0.69-0.65-0.93
		c-0.15-0.24-0.25-0.43-0.3-0.55c-0.05-0.13-0.07-0.25-0.07-0.36c0-0.21,0.12-0.44,0.37-0.69c0.25-0.25,0.55-0.38,0.91-0.38
		c0.06,0,0.12,0.02,0.18,0.05c0.07,0.03,0.19,0.14,0.37,0.31c0.18,0.17,0.43,0.44,0.75,0.79c0.32,0.36,0.76,0.86,1.3,1.5
		c1.49,1.77,2.87,3.33,4.12,4.66c1.26,1.34,2.49,2.55,3.7,3.63c1.21,1.08,2.43,2.08,3.67,2.99c1.24,0.91,2.58,1.83,4.04,2.75
		c0.04-0.51,0.07-0.96,0.1-1.35c0.03-0.39,0.05-0.76,0.07-1.11c0.02-0.35,0.03-0.7,0.04-1.05c0.01-0.36,0.01-0.74,0.01-1.16
		c0-1.52-0.02-2.91-0.06-4.18c-0.04-1.27-0.08-2.56-0.11-3.87c-0.02-0.46-0.08-0.83-0.17-1.11c-0.09-0.28-0.19-0.51-0.3-0.69
		c-0.1-0.18-0.2-0.35-0.28-0.48c-0.08-0.14-0.13-0.3-0.13-0.48c0-0.21,0.08-0.38,0.23-0.52c0.15-0.14,0.33-0.25,0.55-0.33
		c0.22-0.08,0.44-0.14,0.68-0.19c0.24-0.05,0.44-0.07,0.61-0.07c0.21,0,0.42,0.04,0.62,0.12c0.21,0.08,0.31,0.27,0.31,0.57
		c0,0.18-0.02,0.44-0.07,0.76c-0.05,0.32-0.1,0.89-0.17,1.71c-0.07,0.82-0.12,1.98-0.17,3.49c-0.05,1.51-0.07,3.55-0.07,6.13
		c0,0.78,0.01,1.47,0.04,2.06c0.03,0.59,0.07,1.11,0.11,1.55c0.05,0.45,0.09,0.85,0.11,1.19c0.03,0.35,0.04,0.68,0.04,1
		c0,0.3-0.08,0.56-0.23,0.79c-0.15,0.23-0.33,0.42-0.52,0.57c-0.2,0.15-0.4,0.26-0.61,0.33c-0.21,0.07-0.38,0.1-0.51,0.1
		c-0.11,0-0.21-0.1-0.3-0.29c-0.08-0.2-0.18-0.43-0.3-0.69c-0.11-0.26-0.25-0.55-0.41-0.85c-0.16-0.3-0.38-0.55-0.67-0.76
		c-1.51-1.06-2.82-1.99-3.94-2.78c-1.11-0.79-2.08-1.5-2.89-2.11c-0.81-0.61-1.5-1.15-2.07-1.61c-0.57-0.46-1.06-0.89-1.49-1.28
		c-0.43-0.39-0.81-0.77-1.15-1.12c-0.34-0.36-0.68-0.73-1.02-1.12c-0.06,0.51-0.11,1.2-0.16,2.07c-0.05,0.88-0.1,1.83-0.16,2.85
		c-0.06,1.02-0.13,2.06-0.21,3.09c-0.08,1.04-0.19,1.97-0.33,2.8c-0.09,0.53-0.25,0.92-0.45,1.17c-0.21,0.25-0.42,0.38-0.65,0.38
		c-0.09,0-0.21-0.02-0.35-0.07c-0.14-0.05-0.27-0.12-0.4-0.21c-0.12-0.09-0.23-0.2-0.31-0.31c-0.08-0.11-0.13-0.24-0.13-0.38
		c0-0.23,0.08-0.58,0.24-1.05c0.16-0.47,0.33-1.11,0.51-1.9c0.18-0.79,0.35-1.76,0.51-2.9c0.16-1.14,0.24-2.48,0.24-4.02
		C32.6,23.38,32.49,22.45,32.25,21.7z"/>
	<path class="st1" d="M58.98,29.89c-0.36,0.22-0.67,0.62-0.93,1.19l-1.42,3.01c-0.09,0.21-0.15,0.43-0.17,0.66
		c-0.02,0.23-0.16,0.35-0.43,0.35c-0.53,0-0.95-0.07-1.27-0.21c-0.32-0.14-0.48-0.33-0.48-0.59c0-0.21,0.09-0.43,0.28-0.66
		c0.19-0.23,0.41-0.54,0.65-0.93c0.34-0.53,0.72-1.16,1.13-1.9c0.42-0.74,0.83-1.51,1.25-2.31c0.42-0.81,0.82-1.62,1.22-2.44
		c0.4-0.82,0.75-1.57,1.05-2.26c0.3-0.69,0.55-1.3,0.74-1.81c0.19-0.52,0.28-0.88,0.28-1.09c0-0.46-0.32-1.08-0.96-1.87l-2.32-2.87
		c-0.26-0.35-0.49-0.59-0.68-0.73c-0.19-0.14-0.28-0.3-0.28-0.48c0-0.09,0.07-0.2,0.21-0.33c0.14-0.13,0.31-0.25,0.5-0.38
		c0.19-0.13,0.38-0.24,0.58-0.33c0.2-0.09,0.36-0.14,0.5-0.14c0.26,0,0.47,0.01,0.62,0.03c0.15,0.02,0.28,0.08,0.38,0.16
		c0.1,0.08,0.19,0.2,0.26,0.36c0.07,0.16,0.15,0.38,0.24,0.66c0.04,0.14,0.16,0.37,0.35,0.69c0.2,0.32,0.4,0.65,0.61,0.97
		c1.53,2.26,2.85,4.16,3.97,5.7c1.11,1.54,2.13,2.9,3.04,4.06c0.92,1.16,1.79,2.22,2.63,3.16c0.84,0.94,1.76,1.96,2.76,3.04
		c0.19,0.21,0.37,0.35,0.54,0.41c0.17,0.07,0.32,0.13,0.44,0.17c0.12,0.05,0.22,0.11,0.3,0.19c0.08,0.08,0.11,0.22,0.11,0.43
		c0,0.09-0.05,0.22-0.16,0.4c-0.1,0.17-0.23,0.35-0.38,0.52c-0.15,0.17-0.3,0.32-0.45,0.43c-0.15,0.12-0.28,0.17-0.4,0.17h-0.85
		c-0.15,0-0.25-0.08-0.31-0.24c-0.06-0.16-0.13-0.31-0.23-0.45c-0.62-1.04-1.89-2.73-3.8-5.08h-7.51
		C59.88,29.56,59.34,29.67,58.98,29.89z"/>
	<path class="st1" d="M93.32,18.94c0.6-1.23,1.06-2.16,1.37-2.8c0.31-0.63,0.53-1.04,0.67-1.21c0.13-0.17,0.26-0.26,0.4-0.26
		c0.11,0,0.27,0.03,0.47,0.09c0.2,0.06,0.4,0.13,0.59,0.21c0.2,0.08,0.37,0.17,0.51,0.26c0.14,0.09,0.21,0.17,0.21,0.24
		c0,0.25-0.01,0.49-0.04,0.71c-0.03,0.22-0.04,0.41-0.04,0.57c0,0.71,0.07,1.63,0.2,2.75c0.13,1.12,0.3,2.3,0.5,3.56
		c0.2,1.26,0.42,2.53,0.65,3.82c0.24,1.29,0.45,2.47,0.65,3.54c0.2,1.07,0.36,1.96,0.5,2.68c0.13,0.71,0.2,1.14,0.2,1.28
		c0,0.14-0.08,0.27-0.23,0.38c-0.15,0.12-0.33,0.21-0.52,0.29c-0.2,0.08-0.38,0.15-0.55,0.21c-0.17,0.06-0.28,0.09-0.34,0.09
		c-0.17,0-0.29-0.05-0.35-0.14c-0.07-0.09-0.12-0.3-0.16-0.62c-0.15-1.57-0.33-3.1-0.54-4.61c-0.21-1.51-0.42-2.97-0.64-4.39
		c-0.22-1.42-0.43-2.78-0.64-4.08c-0.21-1.3-0.38-2.53-0.51-3.68c-1.25,2.33-2.24,4.2-2.97,5.63c-0.74,1.43-1.3,2.56-1.7,3.4
		c-0.4,0.84-0.66,1.47-0.78,1.88c-0.12,0.41-0.19,0.77-0.21,1.07c-0.02,0.39-0.09,0.65-0.23,0.78c-0.13,0.13-0.33,0.19-0.59,0.19
		c-0.26,0-0.45-0.07-0.57-0.21c-0.11-0.14-0.25-0.44-0.4-0.9c-0.08-0.21-0.24-0.57-0.48-1.09c-0.25-0.52-0.54-1.11-0.89-1.78
		c-0.35-0.67-0.73-1.38-1.15-2.14c-0.42-0.76-0.82-1.5-1.22-2.21c-0.4-0.71-0.76-1.38-1.09-1.99c-0.33-0.61-0.59-1.09-0.78-1.43
		c-0.06,0.28-0.15,0.82-0.28,1.62c-0.13,0.81-0.28,1.73-0.45,2.78c-0.17,1.05-0.34,2.15-0.52,3.32c-0.18,1.16-0.34,2.25-0.5,3.25
		c-0.15,1-0.27,1.86-0.37,2.57c-0.09,0.71-0.14,1.14-0.14,1.28c0,0.18,0.02,0.37,0.06,0.55c0.04,0.18,0.06,0.37,0.06,0.55
		c0,0.09-0.04,0.18-0.13,0.26c-0.09,0.08-0.22,0.12-0.41,0.12c-0.45,0-0.86-0.06-1.23-0.17c-0.37-0.11-0.55-0.37-0.55-0.76
		c0-0.18,0.05-0.44,0.14-0.78c0.09-0.33,0.23-0.81,0.4-1.43c0.09-0.37,0.23-0.95,0.4-1.74c0.17-0.79,0.35-1.7,0.54-2.73
		c0.19-1.02,0.38-2.1,0.58-3.23c0.2-1.13,0.38-2.2,0.54-3.21c0.16-1.01,0.29-1.92,0.4-2.71c0.1-0.79,0.16-1.36,0.16-1.71
		c0-0.39-0.05-0.66-0.14-0.81C81.05,15.89,81,15.68,81,15.4c0-0.25,0.14-0.42,0.42-0.5c0.28-0.08,0.63-0.12,1.05-0.12
		c0.32,0,0.53,0.04,0.64,0.12c0.1,0.08,0.17,0.25,0.21,0.5c0.06,0.35,0.22,0.83,0.48,1.45c0.26,0.62,0.59,1.32,0.96,2.09
		c0.38,0.77,0.79,1.58,1.23,2.42c0.44,0.84,0.87,1.64,1.29,2.38c0.42,0.75,0.79,1.42,1.13,2.02c0.34,0.6,0.59,1.05,0.76,1.35
		l1.61-3.14C91.88,21.85,92.72,20.17,93.32,18.94z"/>
	<path class="st1" d="M108.53,29.89c-0.36,0.22-0.67,0.62-0.93,1.19l-1.42,3.01c-0.09,0.21-0.15,0.43-0.17,0.66
		c-0.02,0.23-0.16,0.35-0.43,0.35c-0.53,0-0.95-0.07-1.27-0.21c-0.32-0.14-0.48-0.33-0.48-0.59c0-0.21,0.09-0.43,0.28-0.66
		c0.19-0.23,0.41-0.54,0.65-0.93c0.34-0.53,0.72-1.16,1.13-1.9c0.42-0.74,0.83-1.51,1.25-2.31c0.42-0.81,0.82-1.62,1.22-2.44
		c0.4-0.82,0.75-1.57,1.05-2.26c0.3-0.69,0.55-1.3,0.74-1.81c0.19-0.52,0.28-0.88,0.28-1.09c0-0.46-0.32-1.08-0.96-1.87l-2.32-2.87
		c-0.26-0.35-0.49-0.59-0.68-0.73c-0.19-0.14-0.28-0.3-0.28-0.48c0-0.09,0.07-0.2,0.21-0.33c0.14-0.13,0.31-0.25,0.5-0.38
		c0.19-0.13,0.38-0.24,0.58-0.33c0.2-0.09,0.36-0.14,0.5-0.14c0.26,0,0.47,0.01,0.62,0.03c0.15,0.02,0.28,0.08,0.38,0.16
		c0.1,0.08,0.19,0.2,0.26,0.36c0.07,0.16,0.15,0.38,0.24,0.66c0.04,0.14,0.16,0.37,0.35,0.69c0.2,0.32,0.4,0.65,0.61,0.97
		c1.53,2.26,2.85,4.16,3.97,5.7c1.11,1.54,2.13,2.9,3.04,4.06c0.92,1.16,1.79,2.22,2.63,3.16c0.84,0.94,1.76,1.96,2.76,3.04
		c0.19,0.21,0.37,0.35,0.54,0.41c0.17,0.07,0.32,0.13,0.44,0.17c0.12,0.05,0.22,0.11,0.3,0.19c0.08,0.08,0.11,0.22,0.11,0.43
		c0,0.09-0.05,0.22-0.16,0.4c-0.1,0.17-0.23,0.35-0.38,0.52c-0.15,0.17-0.3,0.32-0.45,0.43c-0.15,0.12-0.28,0.17-0.4,0.17h-0.85
		c-0.15,0-0.25-0.08-0.31-0.24c-0.06-0.16-0.13-0.31-0.23-0.45c-0.62-1.04-1.89-2.73-3.8-5.08h-7.51
		C109.43,29.56,108.89,29.67,108.53,29.89z"/>
	<path class="st1" d="M131,34.38c-0.79,0.06-1.4,0.13-1.83,0.21c-0.42,0.08-0.71,0.15-0.86,0.21c-0.15,0.06-0.27,0.09-0.37,0.09
		c-0.06,0-0.14-0.06-0.25-0.19c-0.11-0.13-0.23-0.28-0.34-0.45c-0.11-0.17-0.22-0.36-0.31-0.57c-0.09-0.21-0.14-0.38-0.14-0.52
		s0.16-0.44,0.48-0.92c0.32-0.47,0.76-1.09,1.32-1.85c0.56-0.76,1.21-1.63,1.97-2.61c0.75-0.98,1.57-2.04,2.44-3.2
		c0.87-1.15,1.77-2.37,2.71-3.64c0.93-1.28,1.86-2.57,2.79-3.89l-3.91,0.21c-0.64,0.05-1.16,0.08-1.54,0.1
		c-0.39,0.02-0.8,0.03-1.23,0.03h-0.96c-0.49,0-0.89-0.01-1.19-0.02c-0.3-0.01-0.54-0.05-0.71-0.1c-0.17-0.06-0.28-0.13-0.34-0.22
		c-0.06-0.09-0.09-0.22-0.09-0.38c0-0.16,0.03-0.37,0.09-0.62c0.06-0.25,0.13-0.5,0.23-0.74c0.09-0.24,0.2-0.45,0.33-0.62
		c0.12-0.17,0.24-0.26,0.35-0.26c0.11,0,0.22,0.05,0.33,0.14c0.1,0.09,0.22,0.19,0.35,0.29c0.13,0.1,0.3,0.2,0.5,0.29
		c0.2,0.09,0.45,0.14,0.75,0.14c0.21,0,0.6,0.01,1.18,0.03c0.58,0.02,1.17,0.03,1.77,0.03h1.1h1.05c0.59,0,1.16-0.01,1.71-0.03
		c0.56-0.02,0.95-0.03,1.18-0.03c0.23-0.02,0.4-0.07,0.51-0.14c0.11-0.07,0.24-0.1,0.4-0.1c0.08,0,0.19,0.03,0.34,0.1
		c0.15,0.07,0.3,0.16,0.45,0.28c0.15,0.12,0.28,0.24,0.4,0.38c0.11,0.14,0.17,0.28,0.17,0.41c0,0.16-0.25,0.58-0.75,1.26
		c-0.5,0.68-1.14,1.51-1.91,2.49c-0.77,0.98-1.63,2.05-2.56,3.21c-0.93,1.16-1.83,2.32-2.68,3.47c-0.85,1.15-1.61,2.24-2.28,3.26
		c-0.67,1.03-1.13,1.88-1.37,2.57h2.66c0.98,0,1.91-0.02,2.78-0.07c0.87-0.05,1.64-0.1,2.32-0.16c0.68-0.06,1.25-0.12,1.7-0.19
		c0.45-0.07,0.75-0.13,0.91-0.17c0.34-0.11,0.67-0.29,0.99-0.54c0.32-0.24,0.6-0.36,0.85-0.36c0.15,0,0.26,0.07,0.31,0.22
		c0.06,0.15,0.08,0.28,0.08,0.4c0,0.07-0.02,0.26-0.07,0.57c-0.05,0.31-0.11,0.64-0.2,0.98c-0.09,0.35-0.18,0.66-0.3,0.93
		c-0.11,0.28-0.24,0.41-0.37,0.41c-0.21,0-0.63-0.04-1.26-0.12c-0.63-0.08-1.43-0.12-2.39-0.12h-3.99
		C132.88,34.3,131.79,34.33,131,34.38z"/>
	<path class="st1" d="M146.79,14.78c0.08-0.23,0.27-0.35,0.55-0.35c0.13,0,0.33,0.07,0.58,0.21c0.26,0.14,0.51,0.31,0.76,0.5
		c0.26,0.2,0.48,0.4,0.68,0.62c0.2,0.22,0.3,0.42,0.3,0.6c0,0.18-0.05,0.37-0.16,0.57c-0.1,0.2-0.21,0.51-0.33,0.95
		c-0.11,0.44-0.22,1.06-0.33,1.87c-0.1,0.81-0.16,1.91-0.16,3.32c0,1.47,0.03,2.76,0.1,3.85c0.07,1.09,0.26,2.07,0.58,2.92
		c0.13,0.39,0.36,0.77,0.68,1.12c0.32,0.36,0.67,0.67,1.06,0.95c0.39,0.28,0.79,0.5,1.2,0.66c0.42,0.16,0.79,0.24,1.13,0.24
		c0.72,0,1.33-0.21,1.84-0.62c0.51-0.41,0.93-0.96,1.27-1.64c0.34-0.68,0.61-1.45,0.81-2.3c0.2-0.85,0.34-1.72,0.44-2.61
		c0.09-0.89,0.16-1.74,0.18-2.57c0.03-0.83,0.04-1.55,0.04-2.18c0-0.83-0.02-1.52-0.06-2.07c-0.04-0.55-0.08-1-0.11-1.35
		c-0.04-0.35-0.08-0.61-0.11-0.79c-0.04-0.18-0.06-0.33-0.06-0.45c0-0.3,0.1-0.51,0.31-0.62c0.21-0.12,0.46-0.17,0.76-0.17
		c0.36,0,0.68,0.1,0.98,0.29c0.29,0.2,0.44,0.49,0.44,0.88c0,0.28-0.03,0.74-0.08,1.4s-0.13,1.4-0.21,2.25
		c-0.09,0.84-0.18,1.73-0.3,2.68c-0.11,0.94-0.23,1.85-0.35,2.71c-0.12,0.86-0.25,1.65-0.38,2.35c-0.13,0.7-0.25,1.24-0.37,1.61
		c-0.45,1.36-1.09,2.44-1.91,3.23c-0.82,0.79-1.64,1.39-2.45,1.78c-0.21,0.09-0.41,0.15-0.59,0.17c-0.19,0.02-0.38,0.03-0.57,0.03
		c-0.38,0-0.81-0.07-1.3-0.21c-0.49-0.14-0.98-0.34-1.46-0.6c-0.48-0.26-0.93-0.59-1.35-0.98c-0.42-0.39-0.73-0.83-0.93-1.31
		c-0.23-0.53-0.42-1.32-0.58-2.37c-0.16-1.05-0.29-2.27-0.4-3.68c-0.1-1.4-0.18-2.94-0.23-4.61c-0.05-1.67-0.07-3.38-0.07-5.13
		C146.66,15.39,146.7,15.01,146.79,14.78z"/>
</g>
<text transform="matrix(1 0 0 1 82.8388 42.5305)" class="st2 st3 st4">Japanese Restaurant</text>
</svg>
